<mxfile host="app.diagrams.net" modified="2021-11-24T12:16:49.776Z" agent="5.0 (Macintosh; Intel Mac OS X 10_15_7) AppleWebKit/537.36 (KHTML, like Gecko) Chrome/95.0.4638.69 Safari/537.36" etag="_LyCchlyV2I1h_6e_l2K" version="15.7.4" type="github" pages="2">
  <diagram id="qTN_XoGzaRHSL3tezx0D" name="Page-1">
    <mxGraphModel dx="1155" dy="591" grid="1" gridSize="10" guides="1" tooltips="1" connect="1" arrows="1" fold="1" page="1" pageScale="1" pageWidth="1169" pageHeight="1654" math="0" shadow="0">
      <root>
        <mxCell id="g2Watqp7JFzsTT7KAdyt-0" />
        <mxCell id="g2Watqp7JFzsTT7KAdyt-1" parent="g2Watqp7JFzsTT7KAdyt-0" />
        <mxCell id="gipt9TQsbMayV0EHitgy-15" value="明眸库位监测项目实施流程图" style="swimlane;childLayout=stackLayout;resizeParent=1;resizeParentMax=0;startSize=20;" vertex="1" parent="g2Watqp7JFzsTT7KAdyt-1">
          <mxGeometry x="30" y="80" width="1430" height="990" as="geometry">
            <mxRectangle x="190" y="760" width="60" height="20" as="alternateBounds" />
          </mxGeometry>
        </mxCell>
        <mxCell id="gipt9TQsbMayV0EHitgy-16" value="需求确定" style="swimlane;startSize=20;" vertex="1" parent="gipt9TQsbMayV0EHitgy-15">
          <mxGeometry y="20" width="260" height="970" as="geometry" />
        </mxCell>
        <mxCell id="dJi0PhWXHKyRflDUWfFJ-1" value="获取仓库CAD图" style="rounded=0;whiteSpace=wrap;html=1;fontSize=13;" vertex="1" parent="gipt9TQsbMayV0EHitgy-16">
          <mxGeometry x="70" y="47" width="120" height="43" as="geometry" />
        </mxCell>
        <mxCell id="dJi0PhWXHKyRflDUWfFJ-7" value="确认相机安装数量和安装位置" style="rounded=0;whiteSpace=wrap;html=1;fontSize=13;" vertex="1" parent="gipt9TQsbMayV0EHitgy-16">
          <mxGeometry x="70" y="170" width="120" height="43" as="geometry" />
        </mxCell>
        <mxCell id="dJi0PhWXHKyRflDUWfFJ-8" value="确认明眸服务器配置" style="rounded=0;whiteSpace=wrap;html=1;fontSize=13;" vertex="1" parent="gipt9TQsbMayV0EHitgy-16">
          <mxGeometry x="65" y="650" width="120" height="43" as="geometry" />
        </mxCell>
        <mxCell id="dJi0PhWXHKyRflDUWfFJ-65" value="相机选型" style="rounded=0;whiteSpace=wrap;html=1;fontSize=13;" vertex="1" parent="gipt9TQsbMayV0EHitgy-16">
          <mxGeometry x="70" y="110" width="120" height="43" as="geometry" />
        </mxCell>
        <mxCell id="gipt9TQsbMayV0EHitgy-17" value="现场施工" style="swimlane;startSize=20;" vertex="1" parent="gipt9TQsbMayV0EHitgy-15">
          <mxGeometry x="260" y="20" width="440" height="970" as="geometry" />
        </mxCell>
        <mxCell id="dJi0PhWXHKyRflDUWfFJ-71" value="材料准备" style="rounded=0;whiteSpace=wrap;html=1;fontSize=13;" vertex="1" parent="gipt9TQsbMayV0EHitgy-17">
          <mxGeometry x="55" y="47" width="120" height="43" as="geometry" />
        </mxCell>
        <mxCell id="dJi0PhWXHKyRflDUWfFJ-74" value="相机检查和ip设置" style="swimlane;fontStyle=0;childLayout=stackLayout;horizontal=1;startSize=30;horizontalStack=0;resizeParent=1;resizeParentMax=0;resizeLast=0;collapsible=1;marginBottom=0;fontSize=13;" vertex="1" parent="gipt9TQsbMayV0EHitgy-17">
          <mxGeometry x="42.5" y="120" width="145" height="120" as="geometry" />
        </mxCell>
        <mxCell id="dJi0PhWXHKyRflDUWfFJ-75" value="1、硬件检查" style="text;strokeColor=none;fillColor=none;align=left;verticalAlign=middle;spacingLeft=4;spacingRight=4;overflow=hidden;points=[[0,0.5],[1,0.5]];portConstraint=eastwest;rotatable=0;fontSize=13;" vertex="1" parent="dJi0PhWXHKyRflDUWfFJ-74">
          <mxGeometry y="30" width="145" height="30" as="geometry" />
        </mxCell>
        <mxCell id="dJi0PhWXHKyRflDUWfFJ-76" value="2、相机激活" style="text;strokeColor=none;fillColor=none;align=left;verticalAlign=middle;spacingLeft=4;spacingRight=4;overflow=hidden;points=[[0,0.5],[1,0.5]];portConstraint=eastwest;rotatable=0;fontSize=13;" vertex="1" parent="dJi0PhWXHKyRflDUWfFJ-74">
          <mxGeometry y="60" width="145" height="30" as="geometry" />
        </mxCell>
        <mxCell id="dJi0PhWXHKyRflDUWfFJ-77" value="3、相机IP地址和端口修改" style="text;strokeColor=none;fillColor=none;align=left;verticalAlign=middle;spacingLeft=4;spacingRight=4;overflow=hidden;points=[[0,0.5],[1,0.5]];portConstraint=eastwest;rotatable=0;fontSize=13;" vertex="1" parent="dJi0PhWXHKyRflDUWfFJ-74">
          <mxGeometry y="90" width="145" height="30" as="geometry" />
        </mxCell>
        <mxCell id="dJi0PhWXHKyRflDUWfFJ-78" value="相机的显示设置修改" style="rounded=0;whiteSpace=wrap;html=1;fontSize=13;" vertex="1" parent="gipt9TQsbMayV0EHitgy-17">
          <mxGeometry x="55" y="280" width="120" height="43" as="geometry" />
        </mxCell>
        <mxCell id="dJi0PhWXHKyRflDUWfFJ-79" value="方案1&lt;br&gt;利用SADPTool.exe" style="rounded=0;whiteSpace=wrap;html=1;fontSize=13;" vertex="1" parent="gipt9TQsbMayV0EHitgy-17">
          <mxGeometry x="265" y="130" width="120" height="43" as="geometry" />
        </mxCell>
        <mxCell id="dJi0PhWXHKyRflDUWfFJ-80" value="方案2&lt;br&gt;IE浏览器输入默认IP" style="rounded=0;whiteSpace=wrap;html=1;fontSize=13;" vertex="1" parent="gipt9TQsbMayV0EHitgy-17">
          <mxGeometry x="265" y="197" width="120" height="43" as="geometry" />
        </mxCell>
        <mxCell id="dJi0PhWXHKyRflDUWfFJ-91" value="相机的安装与调整" style="swimlane;fontStyle=0;childLayout=stackLayout;horizontal=1;startSize=30;horizontalStack=0;resizeParent=1;resizeParentMax=0;resizeLast=0;collapsible=1;marginBottom=0;fontSize=13;" vertex="1" parent="gipt9TQsbMayV0EHitgy-17">
          <mxGeometry x="42.5" y="360" width="237.5" height="120" as="geometry" />
        </mxCell>
        <mxCell id="dJi0PhWXHKyRflDUWfFJ-92" value="1、相机方向保持一致" style="text;strokeColor=none;fillColor=none;align=left;verticalAlign=middle;spacingLeft=4;spacingRight=4;overflow=hidden;points=[[0,0.5],[1,0.5]];portConstraint=eastwest;rotatable=0;fontSize=13;" vertex="1" parent="dJi0PhWXHKyRflDUWfFJ-91">
          <mxGeometry y="30" width="237.5" height="30" as="geometry" />
        </mxCell>
        <mxCell id="dJi0PhWXHKyRflDUWfFJ-95" value="2、安装顺序和ip一致" style="text;strokeColor=none;fillColor=none;align=left;verticalAlign=middle;spacingLeft=4;spacingRight=4;overflow=hidden;points=[[0,0.5],[1,0.5]];portConstraint=eastwest;rotatable=0;fontSize=13;" vertex="1" parent="dJi0PhWXHKyRflDUWfFJ-91">
          <mxGeometry y="60" width="237.5" height="30" as="geometry" />
        </mxCell>
        <mxCell id="dJi0PhWXHKyRflDUWfFJ-93" value="3、激光测距仪确保摄像头装在中心库位" style="text;strokeColor=none;fillColor=none;align=left;verticalAlign=middle;spacingLeft=4;spacingRight=4;overflow=hidden;points=[[0,0.5],[1,0.5]];portConstraint=eastwest;rotatable=0;fontSize=13;" vertex="1" parent="dJi0PhWXHKyRflDUWfFJ-91">
          <mxGeometry y="90" width="237.5" height="30" as="geometry" />
        </mxCell>
        <mxCell id="gipt9TQsbMayV0EHitgy-18" value="环境搭建" style="swimlane;startSize=20;" vertex="1" parent="gipt9TQsbMayV0EHitgy-15">
          <mxGeometry x="700" y="20" width="370" height="970" as="geometry" />
        </mxCell>
        <mxCell id="dJi0PhWXHKyRflDUWfFJ-96" value="确认显卡型号" style="rounded=0;whiteSpace=wrap;html=1;fontSize=13;" vertex="1" parent="gipt9TQsbMayV0EHitgy-18">
          <mxGeometry x="20" y="520" width="120" height="43" as="geometry" />
        </mxCell>
        <mxCell id="dJi0PhWXHKyRflDUWfFJ-98" value="安装cuda" style="rounded=0;whiteSpace=wrap;html=1;fontSize=13;" vertex="1" parent="gipt9TQsbMayV0EHitgy-18">
          <mxGeometry x="20" y="590" width="120" height="43" as="geometry" />
        </mxCell>
        <mxCell id="dJi0PhWXHKyRflDUWfFJ-97" value="安装cudnn" style="rounded=0;whiteSpace=wrap;html=1;fontSize=13;" vertex="1" parent="gipt9TQsbMayV0EHitgy-18">
          <mxGeometry x="20" y="660" width="120" height="43" as="geometry" />
        </mxCell>
        <mxCell id="dJi0PhWXHKyRflDUWfFJ-116" value="拷贝、运行程序（离线测试）" style="swimlane;fontStyle=0;childLayout=stackLayout;horizontal=1;startSize=30;horizontalStack=0;resizeParent=1;resizeParentMax=0;resizeLast=0;collapsible=1;marginBottom=0;fontSize=13;" vertex="1" parent="gipt9TQsbMayV0EHitgy-18">
          <mxGeometry x="22.5" y="730" width="325" height="180" as="geometry" />
        </mxCell>
        <mxCell id="dJi0PhWXHKyRflDUWfFJ-117" value="1、跑离线数据，camera1和camera2已有离线数据包&#xa;storagemonitorAI V1.1.0(alpha)&gt;&gt;test.image" style="text;strokeColor=none;fillColor=none;align=left;verticalAlign=middle;spacingLeft=4;spacingRight=4;overflow=hidden;points=[[0,0.5],[1,0.5]];portConstraint=eastwest;rotatable=0;fontSize=13;" vertex="1" parent="dJi0PhWXHKyRflDUWfFJ-116">
          <mxGeometry y="30" width="325" height="50" as="geometry" />
        </mxCell>
        <mxCell id="dJi0PhWXHKyRflDUWfFJ-118" value="2、确认storagemonitor.config&#xa;参数“data_from”的“value”取值为0" style="text;strokeColor=none;fillColor=none;align=left;verticalAlign=middle;spacingLeft=4;spacingRight=4;overflow=hidden;points=[[0,0.5],[1,0.5]];portConstraint=eastwest;rotatable=0;fontSize=13;" vertex="1" parent="dJi0PhWXHKyRflDUWfFJ-116">
          <mxGeometry y="80" width="325" height="50" as="geometry" />
        </mxCell>
        <mxCell id="dJi0PhWXHKyRflDUWfFJ-119" value="3、改为在线&#xa;需要改camera.config里面的摄像头ip" style="text;strokeColor=none;fillColor=none;align=left;verticalAlign=middle;spacingLeft=4;spacingRight=4;overflow=hidden;points=[[0,0.5],[1,0.5]];portConstraint=eastwest;rotatable=0;fontSize=13;" vertex="1" parent="dJi0PhWXHKyRflDUWfFJ-116">
          <mxGeometry y="130" width="325" height="50" as="geometry" />
        </mxCell>
        <mxCell id="dJi0PhWXHKyRflDUWfFJ-121" value="数据采集" style="rounded=0;whiteSpace=wrap;html=1;fontSize=13;" vertex="1" parent="gipt9TQsbMayV0EHitgy-18">
          <mxGeometry x="125" y="80" width="120" height="43" as="geometry" />
        </mxCell>
        <mxCell id="dJi0PhWXHKyRflDUWfFJ-122" value="数据标注" style="rounded=0;whiteSpace=wrap;html=1;fontSize=13;" vertex="1" parent="gipt9TQsbMayV0EHitgy-18">
          <mxGeometry x="125" y="170" width="120" height="43" as="geometry" />
        </mxCell>
        <mxCell id="dJi0PhWXHKyRflDUWfFJ-123" value="模型训练" style="rounded=0;whiteSpace=wrap;html=1;fontSize=13;" vertex="1" parent="gipt9TQsbMayV0EHitgy-18">
          <mxGeometry x="190" y="280" width="120" height="43" as="geometry" />
        </mxCell>
        <mxCell id="dJi0PhWXHKyRflDUWfFJ-124" value="模型替换" style="rounded=0;whiteSpace=wrap;html=1;fontSize=13;" vertex="1" parent="gipt9TQsbMayV0EHitgy-18">
          <mxGeometry x="190" y="380" width="120" height="43" as="geometry" />
        </mxCell>
        <mxCell id="dJi0PhWXHKyRflDUWfFJ-125" value="运行程序" style="rounded=0;whiteSpace=wrap;html=1;fontSize=13;" vertex="1" parent="gipt9TQsbMayV0EHitgy-18">
          <mxGeometry x="190" y="463.5" width="120" height="43" as="geometry" />
        </mxCell>
        <mxCell id="dJi0PhWXHKyRflDUWfFJ-16" value="系统使用及维护" style="swimlane;startSize=20;" vertex="1" parent="gipt9TQsbMayV0EHitgy-15">
          <mxGeometry x="1070" y="20" width="360" height="970" as="geometry" />
        </mxCell>
        <mxCell id="dJi0PhWXHKyRflDUWfFJ-127" value="对接中控服务器" style="swimlane;fontStyle=0;childLayout=stackLayout;horizontal=1;startSize=30;horizontalStack=0;resizeParent=1;resizeParentMax=0;resizeLast=0;collapsible=1;marginBottom=0;fontSize=13;" vertex="1" parent="dJi0PhWXHKyRflDUWfFJ-16">
          <mxGeometry x="60" y="560" width="260" height="90" as="geometry" />
        </mxCell>
        <mxCell id="dJi0PhWXHKyRflDUWfFJ-128" value="1、对应相机编号的库位索引与vnl库位编号" style="text;strokeColor=none;fillColor=none;align=left;verticalAlign=middle;spacingLeft=4;spacingRight=4;overflow=hidden;points=[[0,0.5],[1,0.5]];portConstraint=eastwest;rotatable=0;fontSize=13;" vertex="1" parent="dJi0PhWXHKyRflDUWfFJ-127">
          <mxGeometry y="30" width="260" height="30" as="geometry" />
        </mxCell>
        <mxCell id="dJi0PhWXHKyRflDUWfFJ-129" value="2、camera.config修改park.id" style="text;strokeColor=none;fillColor=none;align=left;verticalAlign=middle;spacingLeft=4;spacingRight=4;overflow=hidden;points=[[0,0.5],[1,0.5]];portConstraint=eastwest;rotatable=0;fontSize=13;" vertex="1" parent="dJi0PhWXHKyRflDUWfFJ-127">
          <mxGeometry y="60" width="260" height="30" as="geometry" />
        </mxCell>
      </root>
    </mxGraphModel>
  </diagram>
  <diagram id="xh-GPsMhEDy-V-L50GRL" name="明眸系统安装">
    <mxGraphModel dx="435" dy="566" grid="1" gridSize="10" guides="1" tooltips="1" connect="1" arrows="1" fold="1" page="1" pageScale="1" pageWidth="1169" pageHeight="1654" math="0" shadow="0">
      <root>
        <mxCell id="wq0I0MHBkT74DeKS9PUi-0" />
        <mxCell id="wq0I0MHBkT74DeKS9PUi-1" parent="wq0I0MHBkT74DeKS9PUi-0" />
        <mxCell id="wq0I0MHBkT74DeKS9PUi-3" value="环境搭建" style="swimlane;fontStyle=0;childLayout=stackLayout;horizontal=1;startSize=30;horizontalStack=0;resizeParent=1;resizeParentMax=0;resizeLast=0;collapsible=1;marginBottom=0;" vertex="1" parent="wq0I0MHBkT74DeKS9PUi-1">
          <mxGeometry x="110" y="230" width="140" height="150" as="geometry" />
        </mxCell>
        <mxCell id="wq0I0MHBkT74DeKS9PUi-4" value="解压文件" style="text;strokeColor=none;fillColor=none;align=left;verticalAlign=middle;spacingLeft=4;spacingRight=4;overflow=hidden;points=[[0,0.5],[1,0.5]];portConstraint=eastwest;rotatable=0;" vertex="1" parent="wq0I0MHBkT74DeKS9PUi-3">
          <mxGeometry y="30" width="140" height="30" as="geometry" />
        </mxCell>
        <mxCell id="wq0I0MHBkT74DeKS9PUi-5" value="安装cuda" style="text;strokeColor=none;fillColor=none;align=left;verticalAlign=middle;spacingLeft=4;spacingRight=4;overflow=hidden;points=[[0,0.5],[1,0.5]];portConstraint=eastwest;rotatable=0;" vertex="1" parent="wq0I0MHBkT74DeKS9PUi-3">
          <mxGeometry y="60" width="140" height="30" as="geometry" />
        </mxCell>
        <mxCell id="wq0I0MHBkT74DeKS9PUi-6" value="配置cudnn" style="text;strokeColor=none;fillColor=none;align=left;verticalAlign=middle;spacingLeft=4;spacingRight=4;overflow=hidden;points=[[0,0.5],[1,0.5]];portConstraint=eastwest;rotatable=0;" vertex="1" parent="wq0I0MHBkT74DeKS9PUi-3">
          <mxGeometry y="90" width="140" height="30" as="geometry" />
        </mxCell>
        <mxCell id="wq0I0MHBkT74DeKS9PUi-13" value="配置TensorRT" style="text;strokeColor=none;fillColor=none;align=left;verticalAlign=middle;spacingLeft=4;spacingRight=4;overflow=hidden;points=[[0,0.5],[1,0.5]];portConstraint=eastwest;rotatable=0;" vertex="1" parent="wq0I0MHBkT74DeKS9PUi-3">
          <mxGeometry y="120" width="140" height="30" as="geometry" />
        </mxCell>
        <mxCell id="wq0I0MHBkT74DeKS9PUi-22" value="" style="edgeStyle=orthogonalEdgeStyle;rounded=0;orthogonalLoop=1;jettySize=auto;html=1;" edge="1" parent="wq0I0MHBkT74DeKS9PUi-1" source="wq0I0MHBkT74DeKS9PUi-18" target="wq0I0MHBkT74DeKS9PUi-20">
          <mxGeometry relative="1" as="geometry" />
        </mxCell>
        <mxCell id="wq0I0MHBkT74DeKS9PUi-18" value="生成模型" style="rounded=0;whiteSpace=wrap;html=1;" vertex="1" parent="wq0I0MHBkT74DeKS9PUi-1">
          <mxGeometry x="340" y="230" width="120" height="30" as="geometry" />
        </mxCell>
        <mxCell id="wq0I0MHBkT74DeKS9PUi-19" value="" style="endArrow=classic;html=1;rounded=0;exitX=1;exitY=0.1;exitDx=0;exitDy=0;exitPerimeter=0;entryX=0;entryY=0.5;entryDx=0;entryDy=0;" edge="1" parent="wq0I0MHBkT74DeKS9PUi-1" source="wq0I0MHBkT74DeKS9PUi-3" target="wq0I0MHBkT74DeKS9PUi-18">
          <mxGeometry width="50" height="50" relative="1" as="geometry">
            <mxPoint x="270" y="410" as="sourcePoint" />
            <mxPoint x="320" y="360" as="targetPoint" />
          </mxGeometry>
        </mxCell>
        <mxCell id="wq0I0MHBkT74DeKS9PUi-23" value="" style="edgeStyle=orthogonalEdgeStyle;rounded=0;orthogonalLoop=1;jettySize=auto;html=1;" edge="1" parent="wq0I0MHBkT74DeKS9PUi-1" source="wq0I0MHBkT74DeKS9PUi-20" target="wq0I0MHBkT74DeKS9PUi-21">
          <mxGeometry relative="1" as="geometry" />
        </mxCell>
        <mxCell id="wq0I0MHBkT74DeKS9PUi-20" value="更新许可证" style="rounded=0;whiteSpace=wrap;html=1;" vertex="1" parent="wq0I0MHBkT74DeKS9PUi-1">
          <mxGeometry x="570" y="230" width="120" height="30" as="geometry" />
        </mxCell>
        <mxCell id="wq0I0MHBkT74DeKS9PUi-21" value="运行明眸" style="rounded=0;whiteSpace=wrap;html=1;" vertex="1" parent="wq0I0MHBkT74DeKS9PUi-1">
          <mxGeometry x="800" y="230" width="120" height="30" as="geometry" />
        </mxCell>
        <mxCell id="wq0I0MHBkT74DeKS9PUi-24" value="&lt;h1&gt;CUDA&lt;/h1&gt;&lt;div&gt;NVIDIA推出的运算平台&lt;/div&gt;&lt;div&gt;通用并行运算架构&lt;/div&gt;" style="text;html=1;strokeColor=none;fillColor=none;spacing=5;spacingTop=-20;whiteSpace=wrap;overflow=hidden;rounded=0;" vertex="1" parent="wq0I0MHBkT74DeKS9PUi-1">
          <mxGeometry x="120" y="650" width="190" height="90" as="geometry" />
        </mxCell>
        <mxCell id="wq0I0MHBkT74DeKS9PUi-25" value="&lt;h1&gt;CUDNN&lt;/h1&gt;&lt;div&gt;&lt;span style=&quot;color: rgb(51 , 51 , 51) ; font-family: &amp;#34;pingfang sc&amp;#34; , &amp;#34;microsoft yahei&amp;#34; , &amp;#34;helvetica neue&amp;#34; , &amp;#34;helvetica&amp;#34; , &amp;#34;arial&amp;#34; , sans-serif ; background-color: rgb(255 , 255 , 255)&quot;&gt;&lt;font style=&quot;font-size: 13px&quot;&gt;NVIDIA CUDA® Deep Neural Network librar&lt;/font&gt;&lt;/span&gt;&lt;br&gt;&lt;/div&gt;&lt;div&gt;&lt;span style=&quot;color: rgb(51 , 51 , 51) ; font-family: &amp;#34;pingfang sc&amp;#34; , &amp;#34;microsoft yahei&amp;#34; , &amp;#34;helvetica neue&amp;#34; , &amp;#34;helvetica&amp;#34; , &amp;#34;arial&amp;#34; , sans-serif ; background-color: rgb(255 , 255 , 255)&quot;&gt;&lt;font style=&quot;font-size: 13px&quot;&gt;深度学习网络加速库&lt;/font&gt;&lt;/span&gt;&lt;/div&gt;" style="text;html=1;strokeColor=none;fillColor=none;spacing=5;spacingTop=-20;whiteSpace=wrap;overflow=hidden;rounded=0;" vertex="1" parent="wq0I0MHBkT74DeKS9PUi-1">
          <mxGeometry x="120" y="760" width="190" height="100" as="geometry" />
        </mxCell>
        <mxCell id="wq0I0MHBkT74DeKS9PUi-26" value="&lt;h1&gt;TensorRT&lt;/h1&gt;&lt;div&gt;&lt;span style=&quot;color: rgb(102 , 102 , 102) ; font-family: &amp;#34;arial&amp;#34; , &amp;#34;helvetica&amp;#34; , sans-serif ; font-size: 13px ; background-color: rgb(255 , 255 , 255)&quot;&gt;用于高性能深度学习推理的 SDK&lt;/span&gt;&lt;br&gt;&lt;/div&gt;" style="text;html=1;strokeColor=none;fillColor=none;spacing=5;spacingTop=-20;whiteSpace=wrap;overflow=hidden;rounded=0;" vertex="1" parent="wq0I0MHBkT74DeKS9PUi-1">
          <mxGeometry x="120" y="900" width="190" height="100" as="geometry" />
        </mxCell>
        <mxCell id="wq0I0MHBkT74DeKS9PUi-27" value=".wts文件哪里来" style="text;html=1;strokeColor=none;fillColor=none;align=center;verticalAlign=middle;whiteSpace=wrap;rounded=0;fontSize=13;" vertex="1" parent="wq0I0MHBkT74DeKS9PUi-1">
          <mxGeometry x="340" y="280" width="60" height="30" as="geometry" />
        </mxCell>
        <mxCell id="wq0I0MHBkT74DeKS9PUi-28" value="1200" style="text;html=1;strokeColor=none;fillColor=none;align=center;verticalAlign=middle;whiteSpace=wrap;rounded=0;fontSize=13;" vertex="1" parent="wq0I0MHBkT74DeKS9PUi-1">
          <mxGeometry x="610" y="280" width="60" height="30" as="geometry" />
        </mxCell>
      </root>
    </mxGraphModel>
  </diagram>
</mxfile>
